<svg width="18" height="18" xmlns="http://www.w3.org/2000/svg">

 <g>
  <title>background</title>
  <rect fill="none" id="canvas_background" height="20" width="20" y="-1" x="-1"/>
 </g>
 <g>
  <title>Layer 1</title>
  <g id="svg_1" fill="#fff">
   <path fill="#ffffff" id="svg_2" d="m-32.990065,-7.340424l4,0l0,25l-4,0l0,-25zm18,17.025c0,3.826 -3.217,4.131 -4.174,4.131c-2.391,0 -2.826,-2.238 -2.826,-3.588l0,-9.568l-4,0l0,9.548c0,2.37 0.744,4.326 2.048,5.63c1.152,1.153 2.878,1.783 4.748,1.783c1.326,0 3.204,-0.413 4.204,-1.326l0,1.365l4,0l0,-17l-4,0l0,9.025zm12,-15.025l-4,0l0,6l-3,0l0,4l3,0l0,13l4,0l0,-13l3,0l0,-4l-3,0l0,-6zm15.597,17.917c-0.871,0.783 -2.021,1.217 -3.283,1.217c-2.782,0 -4.825,-2.043 -4.825,-4.848s1.978,-4.762 4.825,-4.762c1.24,0 2.412,0.413 3.305,1.196l0.607,0.522l2.697,-2.696l-0.675,-0.609c-1.587,-1.433 -3.694,-2.237 -5.935,-2.237c-5,0 -8.631,3.608 -8.631,8.565c0,4.936 3.718,8.673 8.631,8.673c2.283,0 4.412,-0.804 5.979,-2.26l0.652,-0.609l-2.739,-2.694l-0.608,0.542zm17.603,-10.435c-1.152,-1.152 -2.502,-1.782 -4.372,-1.782c-1.326,0 -2.828,0.413 -3.828,1.325l0,-9.025l-4,0l0,25l4,0l0,-9.365c0,-3.826 2.718,-4.13 3.675,-4.13c2.391,0 2.325,2.239 2.325,3.587l0,9.908l4,0l0,-9.887c0,-2.37 -0.495,-4.326 -1.8,-5.631"/>
  </g>
  <path id="svg_3" fill="#ff3d2e" d="m9.298319,5.991191a2.891,2.891 0 1 1 0,5.784a2.891,2.891 0 0 1 0,-5.784"/>
 </g>
</svg>