<svg width="983" height="158" viewBox="0 0 983 158" fill="none" xmlns="http://www.w3.org/2000/svg">
<path d="M89.1469 44.318C88.4459 37.769 85.4919 32.6698 80.2847 29.0204C75.1277 25.371 68.4185 23.5463 60.1572 23.5463C54.3493 23.5463 49.3675 24.4211 45.2118 26.1709C41.0561 27.9206 37.8768 30.2952 35.6738 33.2947C33.4708 36.2943 32.3442 39.7187 32.2941 43.5681C32.2941 46.7676 33.0201 49.5422 34.4721 51.8918C35.9742 54.2414 38.0019 56.2411 40.5554 57.8908C43.1089 59.4906 45.9378 60.8404 49.042 61.9402C52.1463 63.04 55.2756 63.9649 58.4299 64.7148L72.8496 68.3142C78.6575 69.664 84.2402 71.4887 89.5975 73.7883C95.0049 76.088 99.8365 78.9875 104.092 82.487C108.398 85.9864 111.803 90.2107 114.306 95.1599C116.81 100.109 118.061 105.908 118.061 112.557C118.061 121.556 115.758 129.48 111.152 136.328C106.546 143.127 99.8865 148.452 91.1746 152.301C82.5128 156.1 72.0234 158 59.7066 158C47.7403 158 37.3511 156.15 28.539 152.451C19.777 148.751 12.9177 143.352 7.96088 136.253C3.05417 129.155 0.400548 120.506 0 110.308H27.4125C27.813 115.657 29.4653 120.106 32.3692 123.655C35.2732 127.205 39.0534 129.854 43.7097 131.604C48.4162 133.354 53.6734 134.229 59.4813 134.229C65.5396 134.229 70.8468 133.329 75.4031 131.529C80.0094 129.679 83.6143 127.13 86.2179 123.88C88.8214 120.581 90.1482 116.732 90.1983 112.332C90.1482 108.333 88.9716 105.033 86.6685 102.434C84.3653 99.7842 81.1359 97.5846 76.9802 95.8348C72.8746 94.0351 68.068 92.4354 62.5605 91.0356L45.0616 86.5363C32.3943 83.2868 22.3806 78.3626 15.0205 71.7636C7.71054 65.1147 4.05554 56.2911 4.05554 45.2928C4.05554 36.2443 6.5089 28.3205 11.4156 21.5216C16.3724 14.7227 23.1066 9.44851 31.6182 5.6991C40.1299 1.8997 49.768 0 60.5327 0C71.4477 0 81.0107 1.8997 89.222 5.6991C97.4833 9.44851 103.967 14.6727 108.674 21.3716C113.38 28.0206 115.808 35.6694 115.959 44.318H89.1469Z" fill="white"/>
<path d="M280.339 78.8875C280.339 95.4349 277.235 109.608 271.027 121.406C264.868 133.154 256.457 142.153 245.792 148.402C235.178 154.651 223.136 157.775 209.668 157.775C196.199 157.775 184.133 154.651 173.468 148.402C162.854 142.103 154.442 133.079 148.234 121.331C142.075 109.533 138.996 95.3849 138.996 78.8875C138.996 62.3401 142.075 48.1924 148.234 36.4442C154.442 24.6461 162.854 15.6225 173.468 9.37351C184.133 3.1245 196.199 0 209.668 0C223.136 0 235.178 3.1245 245.792 9.37351C256.457 15.6225 264.868 24.6461 271.027 36.4442C277.235 48.1924 280.339 62.3401 280.339 78.8875ZM252.326 78.8875C252.326 67.2394 250.499 57.4159 246.844 49.4172C243.239 41.3685 238.232 35.2944 231.823 31.1951C225.414 27.0457 218.029 24.9711 209.668 24.9711C201.306 24.9711 193.921 27.0457 187.513 31.1951C181.104 35.2944 176.072 41.3685 172.417 49.4172C168.812 57.4159 167.01 67.2394 167.01 78.8875C167.01 90.5357 168.812 100.384 172.417 108.433C176.072 116.432 181.104 122.506 187.513 126.655C193.921 130.754 201.306 132.804 209.668 132.804C218.029 132.804 225.414 130.754 231.823 126.655C238.232 122.506 243.239 116.432 246.844 108.433C250.499 100.384 252.326 90.5357 252.326 78.8875Z" fill="white"/>
<path d="M306.682 155.675V2.09967H405.216V25.421H334.545V67.1144H398.457V90.4357H334.545V155.675H306.682Z" fill="white"/>
<path d="M423.842 25.421V2.09967H546.56V25.421H499.02V155.675H471.382V25.421H423.842Z" fill="white"/>
<path d="M622.338 155.675H570.217V2.09967H623.39C638.66 2.09967 651.778 5.17418 662.743 11.3232C673.758 17.4222 682.22 26.1959 688.128 37.644C694.036 49.0922 696.99 62.7901 696.99 78.7375C696.99 94.735 694.011 108.483 688.053 119.981C682.145 131.479 673.608 140.303 662.443 146.452C651.328 152.601 637.959 155.675 622.338 155.675ZM598.08 131.604H620.986C631.701 131.604 640.638 129.654 647.798 125.755C654.958 121.806 660.34 115.932 663.945 108.133C667.55 100.284 669.352 90.4857 669.352 78.7375C669.352 66.9894 667.55 57.2409 663.945 49.4922C660.34 41.6934 655.008 35.8693 647.948 32.0199C640.939 28.1206 632.227 26.1709 621.812 26.1709H598.08V131.604Z" fill="#7BD0FF"/>
<path d="M734.955 155.675H705.214L759.363 2.09967H793.76L847.984 155.675H818.243L777.162 33.5947H775.961L734.955 155.675ZM735.931 95.4599H817.042V117.806H735.931V95.4599Z" fill="#7BD0FF"/>
<path d="M868.243 155.675V2.09967H927.124C938.239 2.09967 947.476 3.84939 954.836 7.34883C962.247 10.7983 967.779 15.5225 971.434 21.5216C975.139 27.5206 976.992 34.3196 976.992 41.9184C976.992 48.1674 975.79 53.5165 973.387 57.9658C970.983 62.3651 967.754 65.9396 963.699 68.6891C959.643 71.4387 955.112 73.4134 950.105 74.6132V76.113C955.562 76.4129 960.795 78.0876 965.801 81.1372C970.858 84.1367 974.989 88.386 978.193 93.8851C981.398 99.3843 983 106.033 983 113.832C983 121.781 981.072 128.93 977.217 135.279C973.362 141.578 967.554 146.552 959.793 150.201C952.033 153.851 942.269 155.675 930.503 155.675H868.243ZM896.106 132.429H926.072C936.186 132.429 943.471 130.504 947.927 126.655C952.433 122.756 954.686 117.756 954.686 111.657C954.686 107.108 953.56 103.009 951.307 99.3593C949.053 95.6599 945.849 92.7603 941.693 90.6607C937.538 88.511 932.581 87.4362 926.823 87.4362H896.106V132.429ZM896.106 67.4143H923.669C928.475 67.4143 932.806 66.5395 936.662 64.7897C940.517 62.99 943.546 60.4654 945.749 57.2159C948.002 53.9165 949.129 50.0171 949.129 45.5178C949.129 39.5687 947.026 34.6695 942.82 30.8201C938.664 26.9707 932.481 25.046 924.27 25.046H896.106V67.4143Z" fill="#7BD0FF"/>
</svg>
