<svg width="225" height="295" viewBox="0 0 225 295" fill="none" xmlns="http://www.w3.org/2000/svg">
<path d="M96 146.785L112.689 133.5L130 146.615L112.689 160L96 146.785Z" fill="white"/>
<path d="M58 146.7L112.689 91.6999L168 146.082M4 94.315V202.285C4 202.586 4.13529 202.87 4.3684 203.06L111.319 290.188C111.685 290.486 112.21 290.488 112.578 290.191L220.628 203.06C220.863 202.87 221 202.584 221 202.282V94.3181C221 94.0199 220.867 93.7373 220.637 93.5473L112.588 4.22925C112.217 3.92238 111.679 3.92373 111.31 4.23245L4.35901 93.5475C4.1315 93.7375 4 94.0186 4 94.315ZM8 147.22L112.407 54.6999L218 146.18L113.593 238.7L8 147.22ZM96 146.785L112.689 133.5L130 146.615L112.689 160L96 146.785Z" stroke="white" stroke-width="8" stroke-linecap="round"/>
</svg>
