<svg width="1278" height="295" viewBox="0 0 1278 295" fill="none" xmlns="http://www.w3.org/2000/svg">
<path d="M384.147 109.318C383.446 102.769 380.492 97.6698 375.285 94.0204C370.128 90.371 363.419 88.5463 355.157 88.5463C349.349 88.5463 344.367 89.4211 340.212 91.1709C336.056 92.9206 332.877 95.2952 330.674 98.2947C328.471 101.294 327.344 104.719 327.294 108.568C327.294 111.768 328.02 114.542 329.472 116.892C330.974 119.241 333.002 121.241 335.555 122.891C338.109 124.491 340.938 125.84 344.042 126.94C347.146 128.04 350.276 128.965 353.43 129.715L367.85 133.314C373.658 134.664 379.24 136.489 384.597 138.788C390.005 141.088 394.836 143.988 399.092 147.487C403.398 150.986 406.803 155.211 409.306 160.16C411.81 165.109 413.061 170.908 413.061 177.557C413.061 186.556 410.758 194.48 406.152 201.328C401.546 208.127 394.887 213.452 386.175 217.301C377.513 221.1 367.023 223 354.707 223C342.74 223 332.351 221.15 323.539 217.451C314.777 213.751 307.918 208.352 302.961 201.253C298.054 194.155 295.401 185.506 295 175.308H322.412C322.813 180.657 324.465 185.106 327.369 188.655C330.273 192.205 334.053 194.854 338.71 196.604C343.416 198.354 348.673 199.229 354.481 199.229C360.54 199.229 365.847 198.329 370.403 196.529C375.009 194.679 378.614 192.13 381.218 188.88C383.821 185.581 385.148 181.732 385.198 177.332C385.148 173.333 383.972 170.033 381.668 167.434C379.365 164.784 376.136 162.585 371.98 160.835C367.875 159.035 363.068 157.435 357.561 156.036L340.062 151.536C327.394 148.287 317.381 143.363 310.021 136.764C302.711 130.115 299.056 121.291 299.056 110.293C299.056 101.244 301.509 93.3205 306.416 86.5216C311.372 79.7227 318.107 74.4485 326.618 70.6991C335.13 66.8997 344.768 65 355.533 65C366.448 65 376.011 66.8997 384.222 70.6991C392.483 74.4485 398.967 79.6727 403.674 86.3716C408.38 93.0206 410.808 100.669 410.959 109.318H384.147Z" fill="#102E4B"/>
<path d="M575.339 143.888C575.339 160.435 572.235 174.608 566.027 186.406C559.868 198.154 551.457 207.153 540.792 213.402C530.178 219.651 518.136 222.775 504.668 222.775C491.199 222.775 479.133 219.651 468.468 213.402C457.854 207.103 449.442 198.079 443.234 186.331C437.075 174.533 433.996 160.385 433.996 143.888C433.996 127.34 437.075 113.192 443.234 101.444C449.442 89.6461 457.854 80.6225 468.468 74.3735C479.133 68.1245 491.199 65 504.668 65C518.136 65 530.178 68.1245 540.792 74.3735C551.457 80.6225 559.868 89.6461 566.027 101.444C572.235 113.192 575.339 127.34 575.339 143.888ZM547.326 143.888C547.326 132.239 545.499 122.416 541.844 114.417C538.239 106.368 533.232 100.294 526.823 96.1951C520.414 92.0457 513.029 89.9711 504.668 89.9711C496.306 89.9711 488.921 92.0457 482.513 96.1951C476.104 100.294 471.072 106.368 467.417 114.417C463.812 122.416 462.01 132.239 462.01 143.888C462.01 155.536 463.812 165.384 467.417 173.433C471.072 181.432 476.104 187.506 482.513 191.655C488.921 195.754 496.306 197.804 504.668 197.804C513.029 197.804 520.414 195.754 526.823 191.655C533.232 187.506 538.239 181.432 541.844 173.433C545.499 165.384 547.326 155.536 547.326 143.888Z" fill="#102E4B"/>
<path d="M601.682 220.675V67.0997H700.216V90.421H629.545V132.114H693.457V155.436H629.545V220.675H601.682Z" fill="#102E4B"/>
<path d="M718.842 90.421V67.0997H841.56V90.421H794.02V220.675H766.382V90.421H718.842Z" fill="#102E4B"/>
<path d="M917.338 220.675H865.217V67.0997H918.39C933.66 67.0997 946.778 70.1742 957.743 76.3232C968.758 82.4222 977.22 91.1959 983.128 102.644C989.036 114.092 991.99 127.79 991.99 143.738C991.99 159.735 989.011 173.483 983.053 184.981C977.145 196.479 968.608 205.303 957.443 211.452C946.328 217.601 932.959 220.675 917.338 220.675ZM893.08 196.604H915.986C926.701 196.604 935.638 194.654 942.798 190.755C949.958 186.806 955.34 180.932 958.945 173.133C962.55 165.284 964.352 155.486 964.352 143.738C964.352 131.989 962.55 122.241 958.945 114.492C955.34 106.693 950.008 100.869 942.948 97.0199C935.939 93.1206 927.227 91.1709 916.812 91.1709H893.08V196.604Z" fill="#1E90FF"/>
<path d="M1029.95 220.675H1000.21L1054.36 67.0997H1088.76L1142.98 220.675H1113.24L1072.16 98.5947H1070.96L1029.95 220.675ZM1030.93 160.46H1112.04V182.806H1030.93V160.46Z" fill="#1E90FF"/>
<path d="M1163.24 220.675V67.0997H1222.12C1233.24 67.0997 1242.48 68.8494 1249.84 72.3488C1257.25 75.7983 1262.78 80.5225 1266.43 86.5216C1270.14 92.5206 1271.99 99.3196 1271.99 106.918C1271.99 113.167 1270.79 118.517 1268.39 122.966C1265.98 127.365 1262.75 130.94 1258.7 133.689C1254.64 136.439 1250.11 138.413 1245.1 139.613V141.113C1250.56 141.413 1255.79 143.088 1260.8 146.137C1265.86 149.137 1269.99 153.386 1273.19 158.885C1276.4 164.384 1278 171.033 1278 178.832C1278 186.781 1276.07 193.93 1272.22 200.279C1268.36 206.578 1262.55 211.552 1254.79 215.201C1247.03 218.851 1237.27 220.675 1225.5 220.675H1163.24ZM1191.11 197.429H1221.07C1231.19 197.429 1238.47 195.504 1242.93 191.655C1247.43 187.756 1249.69 182.756 1249.69 176.657C1249.69 172.108 1248.56 168.009 1246.31 164.359C1244.05 160.66 1240.85 157.76 1236.69 155.661C1232.54 153.511 1227.58 152.436 1221.82 152.436H1191.11V197.429ZM1191.11 132.414H1218.67C1223.48 132.414 1227.81 131.539 1231.66 129.79C1235.52 127.99 1238.55 125.465 1240.75 122.216C1243 118.916 1244.13 115.017 1244.13 110.518C1244.13 104.569 1242.03 99.6695 1237.82 95.8201C1233.66 91.9707 1227.48 90.046 1219.27 90.046H1191.11V132.414Z" fill="#1E90FF"/>
<path d="M96 146.785L112.689 133.5L130 146.615L112.689 160L96 146.785Z" fill="#102E4B"/>
<path d="M58 146.7L112.689 91.6999L168 146.082M4 94.315V202.285C4 202.586 4.13529 202.87 4.3684 203.06L111.319 290.188C111.685 290.486 112.21 290.488 112.578 290.191L220.628 203.06C220.863 202.87 221 202.584 221 202.282V94.3181C221 94.0199 220.867 93.7373 220.637 93.5473L112.588 4.22925C112.217 3.92238 111.679 3.92373 111.31 4.23245L4.35901 93.5475C4.1315 93.7375 4 94.0186 4 94.315ZM8 147.22L112.407 54.6999L218 146.18L113.593 238.7L8 147.22ZM96 146.785L112.689 133.5L130 146.615L112.689 160L96 146.785Z" stroke="#102E4B" stroke-width="8" stroke-linecap="round"/>
</svg>
