<svg width="31" height="40" viewBox="0 0 31 40" fill="none" xmlns="http://www.w3.org/2000/svg">
<path d="M13.2062 19.944L15.4204 18.1815L17.7171 19.9216L15.4204 21.6974L13.2062 19.944Z" fill="white"/>
<path d="M8.16449 19.9328L15.4204 12.6356L22.7588 19.8508M1 12.9826V27.3076C1 27.3475 1.01795 27.3853 1.04888 27.4105L15.2386 38.9702C15.2872 39.0098 15.3569 39.01 15.4057 38.9706L29.7412 27.4105C29.7725 27.3853 29.7906 27.3473 29.7906 27.3072V12.983C29.7906 12.9435 29.773 12.906 29.7425 12.8808L15.407 1.03042C15.3577 0.989702 15.2864 0.989881 15.2374 1.03084L1.04763 12.8808C1.01745 12.906 1 12.9433 1 12.9826ZM1.5307 20.0018L15.383 7.72664L29.3926 19.8639L15.5404 32.139L1.5307 20.0018ZM13.2062 19.944L15.4204 18.1815L17.7171 19.9216L15.4204 21.6974L13.2062 19.944Z" stroke="white" stroke-width="1.06141" stroke-linecap="round"/>
</svg>
